<svg width="64" height="64" viewBox="0 0 64 64" fill="none" xmlns="http://www.w3.org/2000/svg">
<path d="M2.125 9.5H61.75V58.6229C61.75 60.7642 60.0142 62.5 57.8729 62.5H6.00207C3.86082 62.5 2.125 60.7642 2.125 58.6229V9.5Z" fill="black"/>
<path d="M8.66703 33.3923L7.50797 34.2893C8.82829 35.3778 10.6122 37.3532 11.4689 38.6836L12.6985 37.706C11.8217 36.4562 9.80593 34.3498 8.66703 33.3923ZM17.5817 35.9724C17.5817 36.5268 17.6405 37.029 17.7581 37.4792C17.8757 37.926 18.0739 38.3695 18.3527 38.8096C18.6316 39.2464 19.0129 39.7268 19.4967 40.2509L18.5694 41.0874C18.0386 40.6305 17.5783 40.1484 17.1886 39.6411C16.7989 39.1338 16.4982 38.5795 16.2866 37.9781C16.0749 37.3767 15.9691 36.7082 15.9691 35.9724C15.9691 35.2367 16.0749 34.5681 16.2866 33.9668C16.4982 33.3654 16.7989 32.8111 17.1886 32.3038C17.5783 31.7965 18.0386 31.3144 18.5694 30.8575L19.4967 31.694C19.0465 32.1845 18.6803 32.6515 18.3981 33.0949C18.1159 33.5351 17.9093 33.9869 17.7782 34.4505C17.6472 34.9108 17.5817 35.4181 17.5817 35.9724ZM29.5625 34.6924C29.0182 34.6924 28.5748 35.1258 28.5748 35.6701C28.5748 36.2143 29.0182 36.6477 29.5625 36.6477C30.0967 36.6477 30.5401 36.2143 30.5401 35.6701C30.5401 35.1258 30.0967 34.6924 29.5625 34.6924ZM34.8236 32.339C35.3276 32.339 35.7559 32.4214 36.1087 32.586C36.4648 32.7472 36.7352 32.9639 36.92 33.2361C37.1081 33.5048 37.2022 33.8021 37.2022 34.128C37.2022 34.5715 37.0712 34.931 36.8091 35.2064C36.5504 35.4786 36.2061 35.6768 35.7761 35.8011C36.2565 35.8649 36.6512 36.0295 36.9603 36.295C37.2694 36.557 37.4239 36.9702 37.4239 37.5346C37.4239 37.9277 37.3147 38.2855 37.0964 38.608C36.8814 38.9306 36.5723 39.1892 36.1691 39.3841C35.766 39.5756 35.2839 39.6713 34.7228 39.6713C34.2021 39.6713 33.7351 39.5806 33.3219 39.3992C32.9086 39.2144 32.5559 38.9557 32.2636 38.6231L33.1606 37.7866C33.3622 38.0184 33.5856 38.1881 33.8309 38.2956C34.0795 38.3997 34.3415 38.4518 34.617 38.4518C34.963 38.4518 35.2452 38.3645 35.4636 38.1898C35.682 38.0117 35.7912 37.7564 35.7912 37.4238C35.7912 37.0542 35.687 36.7888 35.4787 36.6276C35.2738 36.4629 34.9832 36.3806 34.6069 36.3806H33.972L34.1534 35.282H34.6069C34.916 35.282 35.168 35.2064 35.3628 35.0553C35.561 34.9041 35.6601 34.6756 35.6601 34.3699C35.6601 34.1079 35.5661 33.9012 35.3779 33.7501C35.1898 33.5989 34.9462 33.5233 34.6472 33.5233C34.3684 33.5233 34.1147 33.577 33.8863 33.6846C33.6612 33.7921 33.4495 33.9399 33.2513 34.128L32.4349 33.2814C32.7541 32.9723 33.1119 32.7388 33.5083 32.5809C33.9048 32.4197 34.3432 32.339 34.8236 32.339ZM40.6452 34.6924C40.1009 34.6924 39.6575 35.1258 39.6575 35.6701C39.6575 36.2143 40.1009 36.6477 40.6452 36.6477C41.1794 36.6477 41.6228 36.2143 41.6228 35.6701C41.6228 35.1258 41.1794 34.6924 40.6452 34.6924ZM46.5866 35.9724C46.5866 35.4181 46.5211 34.9108 46.3901 34.4505C46.2591 33.9869 46.0525 33.5351 45.7702 33.0949C45.4914 32.6515 45.1252 32.1845 44.6717 31.694L45.5989 30.8575C46.1297 31.3144 46.59 31.7965 46.9797 32.3038C47.3694 32.8111 47.6701 33.3654 47.8817 33.9668C48.0934 34.5681 48.1992 35.2367 48.1992 35.9724C48.1992 36.7082 48.0934 37.3767 47.8817 37.9781C47.6701 38.5795 47.3694 39.1338 46.9797 39.6411C46.59 40.1484 46.1297 40.6305 45.5989 41.0874L44.6717 40.2509C45.1554 39.7268 45.5368 39.2464 45.8156 38.8096C46.0944 38.3695 46.2927 37.926 46.4102 37.4792C46.5278 37.029 46.5866 36.5268 46.5866 35.9724ZM53.532 32.3542L52.3125 31.9409C52.1915 33.3923 51.9093 34.9041 51.4658 36.0934C51.0526 37.1819 50.4076 38.1998 49.6214 38.7441L50.4076 39.9132C51.1433 39.2883 51.9295 38.0587 52.3528 36.9904C52.7459 35.9724 53.0784 34.6118 53.28 33.4729C53.3405 33.1504 53.4413 32.7069 53.532 32.3542Z" fill="#FDD758"/>
<path d="M8.66703 33.3923L8.94108 33.0663C8.78761 32.9373 8.56494 32.9328 8.40639 33.0555L8.66703 33.3923ZM7.50797 34.2893L7.24733 33.9525C7.14494 34.0317 7.08415 34.1533 7.08216 34.2827C7.08016 34.4122 7.13717 34.5355 7.23707 34.6179L7.50797 34.2893ZM11.4689 38.6836L11.1109 38.9142C11.176 39.0153 11.2809 39.0842 11.3996 39.1038C11.5183 39.1234 11.6398 39.0918 11.734 39.017L11.4689 38.6836ZM12.6985 37.706L12.9636 38.0393C13.1399 37.8991 13.1765 37.6458 13.0471 37.4614L12.6985 37.706ZM8.40639 33.0555L7.24733 33.9525L7.76861 34.6261L8.92767 33.7291L8.40639 33.0555ZM7.23707 34.6179C8.52669 35.6811 10.2802 37.6241 11.1109 38.9142L11.827 38.4531C10.9443 37.0823 9.12989 35.0745 7.77887 33.9607L7.23707 34.6179ZM11.734 39.017L12.9636 38.0393L12.4335 37.3726L11.2039 38.3503L11.734 39.017ZM13.0471 37.4614C12.1448 36.1753 10.1019 34.0422 8.94108 33.0663L8.39298 33.7182C9.50993 34.6573 11.4986 36.7372 12.3499 37.9506L13.0471 37.4614ZM17.7581 37.4792L17.346 37.5868L17.3462 37.5876L17.7581 37.4792ZM18.3527 38.8096L17.993 39.0375L17.9938 39.0388L18.3527 38.8096ZM19.4967 40.2509L19.7819 40.5671C19.8664 40.4908 19.9169 40.384 19.9221 40.2703C19.9273 40.1566 19.8868 40.0456 19.8096 39.962L19.4967 40.2509ZM18.5694 41.0874L18.2916 41.4102C18.4542 41.5501 18.6954 41.5473 18.8547 41.4036L18.5694 41.0874ZM16.2866 37.9781L15.8849 38.1195L15.8849 38.1195L16.2866 37.9781ZM16.2866 33.9668L15.8849 33.8254L15.8849 33.8254L16.2866 33.9668ZM18.5694 30.8575L18.8547 30.5413C18.6954 30.3976 18.4542 30.3948 18.2916 30.5347L18.5694 30.8575ZM19.4967 31.694L19.8104 31.982C19.8872 31.8983 19.9274 31.7874 19.922 31.6739C19.9167 31.5605 19.8663 31.4539 19.7819 31.3778L19.4967 31.694ZM18.3981 33.0949L18.7566 33.3248L18.7574 33.3236L18.3981 33.0949ZM17.7782 34.4505L18.1878 34.5671L18.188 34.5664L17.7782 34.4505ZM17.1558 35.9724C17.1558 36.5564 17.2177 37.0956 17.346 37.5868L18.1701 37.3716C18.0633 36.9625 18.0076 36.4972 18.0076 35.9724H17.1558ZM17.3462 37.5876C17.4763 38.0817 17.6937 38.5651 17.993 39.0375L18.7125 38.5817C18.4541 38.1739 18.275 37.7704 18.1699 37.3708L17.3462 37.5876ZM17.9938 39.0388C18.2901 39.503 18.6887 40.0035 19.1837 40.5397L19.8096 39.962C19.337 39.4501 18.973 38.9897 18.7117 38.5804L17.9938 39.0388ZM19.2114 39.9347L18.2841 40.7712L18.8547 41.4036L19.7819 40.5671L19.2114 39.9347ZM18.8472 40.7646C18.3364 40.325 17.8967 39.8638 17.5263 39.3817L16.8509 39.9005C17.2599 40.433 17.7408 40.936 18.2916 41.4102L18.8472 40.7646ZM17.5263 39.3817C17.164 38.91 16.8849 38.3955 16.6883 37.8367L15.8849 38.1195C16.1115 38.7635 16.4338 39.3576 16.8509 39.9005L17.5263 39.3817ZM16.6883 37.8367C16.4949 37.2872 16.395 36.6673 16.395 35.9724H15.5432C15.5432 36.749 15.655 37.4663 15.8849 38.1195L16.6883 37.8367ZM16.395 35.9724C16.395 35.2775 16.4949 34.6577 16.6883 34.1081L15.8849 33.8254C15.655 34.4786 15.5432 35.1958 15.5432 35.9724H16.395ZM16.6883 34.1081C16.8849 33.5494 17.164 33.0349 17.5263 32.5632L16.8509 32.0443C16.4338 32.5872 16.1115 33.1814 15.8849 33.8254L16.6883 34.1081ZM17.5263 32.5632C17.8967 32.0811 18.3364 31.6199 18.8472 31.1802L18.2916 30.5347C17.7408 31.0088 17.2599 31.5119 16.8509 32.0443L17.5263 32.5632ZM18.2841 31.1737L19.2114 32.0102L19.7819 31.3778L18.8547 30.5413L18.2841 31.1737ZM19.1829 31.406C18.7201 31.9103 18.3374 32.3971 18.0388 32.8663L18.7574 33.3236C19.0232 32.9059 19.3729 32.4587 19.8104 31.982L19.1829 31.406ZM18.0396 32.8651C17.7367 33.3375 17.5118 33.8275 17.3684 34.3347L18.188 34.5664C18.3067 34.1464 18.4951 33.7326 18.7566 33.3248L18.0396 32.8651ZM17.3686 34.3339C17.2253 34.8376 17.1558 35.3848 17.1558 35.9724H18.0076C18.0076 35.4514 18.0691 34.984 18.1878 34.5671L17.3686 34.3339ZM29.5625 34.2666C28.7888 34.2666 28.1489 34.8849 28.1489 35.6701H29.0006C29.0006 35.3667 29.2477 35.1183 29.5625 35.1183V34.2666ZM28.1489 35.6701C28.1489 36.4552 28.7888 37.0736 29.5625 37.0736V36.2218C29.2477 36.2218 29.0006 35.9735 29.0006 35.6701H28.1489ZM29.5625 37.0736C30.329 37.0736 30.966 36.4524 30.966 35.6701H30.1143C30.1143 35.9763 29.8643 36.2218 29.5625 36.2218V37.0736ZM30.966 35.6701C30.966 34.8878 30.329 34.2666 29.5625 34.2666V35.1183C29.8643 35.1183 30.1143 35.3639 30.1143 35.6701H30.966ZM36.1087 32.586L35.9286 32.9719L35.933 32.9739L36.1087 32.586ZM36.92 33.2361L36.5676 33.4753L36.5711 33.4803L36.92 33.2361ZM36.8091 35.2064L36.5006 34.9129L36.5005 34.913L36.8091 35.2064ZM35.7761 35.8011L35.6578 35.392C35.4642 35.4479 35.3363 35.6319 35.3514 35.8329C35.3664 36.0338 35.5202 36.1967 35.72 36.2232L35.7761 35.8011ZM36.9603 36.295L36.6829 36.6181L36.6849 36.6198L36.9603 36.295ZM37.0964 38.608L36.7437 38.3693L36.742 38.3718L37.0964 38.608ZM36.1691 39.3841L36.3519 39.7688L36.3544 39.7675L36.1691 39.3841ZM33.3219 39.3992L33.148 39.788L33.1507 39.7892L33.3219 39.3992ZM32.2636 38.6231L31.9732 38.3117C31.8047 38.4688 31.7917 38.7313 31.9437 38.9043L32.2636 38.6231ZM33.1606 37.7866L33.482 37.5072C33.4062 37.42 33.2982 37.3674 33.1829 37.3613C33.0675 37.3553 32.9546 37.3964 32.8702 37.4752L33.1606 37.7866ZM33.8309 38.2956L33.6599 38.6857L33.6663 38.6884L33.8309 38.2956ZM35.4636 38.1898L35.7297 38.5223L35.7327 38.5198L35.4636 38.1898ZM35.4787 36.6276L35.212 36.9596L35.218 36.9643L35.4787 36.6276ZM33.972 36.3806L33.5518 36.3112C33.5314 36.4346 33.5663 36.5608 33.6472 36.6561C33.7281 36.7515 33.8469 36.8065 33.972 36.8065V36.3806ZM34.1534 35.282V34.8562C33.945 34.8562 33.7672 35.007 33.7332 35.2127L34.1534 35.282ZM35.3628 35.0553L35.1046 34.7166L35.1018 34.7188L35.3628 35.0553ZM35.3779 33.7501L35.1112 34.082L35.1112 34.082L35.3779 33.7501ZM33.8863 33.6846L33.705 33.2992L33.7027 33.3003L33.8863 33.6846ZM33.2513 34.128L32.9448 34.4236C33.1071 34.592 33.3749 34.5979 33.5445 34.4369L33.2513 34.128ZM32.4349 33.2814L32.1387 32.9755C31.97 33.1389 31.9654 33.408 32.1284 33.577L32.4349 33.2814ZM33.5083 32.5809L33.6659 32.9766L33.6688 32.9754L33.5083 32.5809ZM34.8236 32.7649C35.2829 32.7649 35.6462 32.8401 35.9286 32.9719L36.2887 32.2001C35.8656 32.0026 35.3722 31.9132 34.8236 31.9132V32.7649ZM35.933 32.9739C36.2312 33.109 36.4347 33.2794 36.5677 33.4753L37.2723 32.9968C37.0358 32.6485 36.6983 32.3855 36.2843 32.198L35.933 32.9739ZM36.5711 33.4803C36.7095 33.678 36.7763 33.8901 36.7763 34.128H37.6281C37.6281 33.7141 37.5068 33.3317 37.2689 32.9918L36.5711 33.4803ZM36.7763 34.128C36.7763 34.4817 36.6749 34.7297 36.5006 34.9129L37.1177 35.5C37.4675 35.1322 37.6281 34.6613 37.6281 34.128H36.7763ZM36.5005 34.913C36.3031 35.1207 36.0292 35.2846 35.6578 35.392L35.8943 36.2102C36.3829 36.069 36.7978 35.8365 37.1178 35.4999L36.5005 34.913ZM35.72 36.2232C36.1343 36.2783 36.4475 36.4159 36.6829 36.618L37.2377 35.9719C36.855 35.6432 36.3786 35.4516 35.8321 35.3789L35.72 36.2232ZM36.6849 36.6198C36.8653 36.7727 36.9981 37.044 36.9981 37.5346H37.8498C37.8498 36.8965 37.6735 36.3413 37.2357 35.9701L36.6849 36.6198ZM36.9981 37.5346C36.9981 37.8434 36.9139 38.1179 36.7437 38.3693L37.449 38.8468C37.7156 38.4531 37.8498 38.012 37.8498 37.5346H36.9981ZM36.742 38.3718C36.5754 38.6218 36.3293 38.8337 35.9838 39.0007L36.3544 39.7675C36.8153 39.5448 37.1873 39.2393 37.4507 38.8443L36.742 38.3718ZM35.9864 38.9994C35.6531 39.1578 35.2365 39.2455 34.7228 39.2455V40.0972C35.3313 40.0972 35.8789 39.9934 36.3518 39.7688L35.9864 38.9994ZM34.7228 39.2455C34.252 39.2455 33.8447 39.1636 33.4931 39.0093L33.1507 39.7892C33.6256 39.9976 34.1522 40.0972 34.7228 40.0972V39.2455ZM33.4957 39.0104C33.1371 38.8501 32.8345 38.6276 32.5835 38.342L31.9437 38.9043C32.2773 39.2839 32.6802 39.5788 33.148 39.788L33.4957 39.0104ZM32.5541 38.9346L33.4511 38.0981L32.8702 37.4752L31.9732 38.3117L32.5541 38.9346ZM32.8393 38.0661C33.0761 38.3384 33.349 38.5494 33.6599 38.6856L34.0018 37.9056C33.8222 37.8268 33.6483 37.6984 33.482 37.5072L32.8393 38.0661ZM33.6663 38.6884C33.9682 38.8148 34.2863 38.8777 34.617 38.8777V38.0259C34.3967 38.0259 34.1907 37.9846 33.9954 37.9028L33.6663 38.6884ZM34.617 38.8777C35.0362 38.8777 35.4192 38.7707 35.7296 38.5223L35.1976 37.8572C35.0713 37.9583 34.8899 38.0259 34.617 38.0259V38.8777ZM35.7327 38.5198C36.0686 38.2459 36.217 37.8587 36.217 37.4238H35.3653C35.3653 37.6541 35.2953 37.7775 35.1945 37.8597L35.7327 38.5198ZM36.217 37.4238C36.217 36.9786 36.0895 36.5618 35.7394 36.2908L35.218 36.9643C35.2846 37.0158 35.3653 37.1298 35.3653 37.4238H36.217ZM35.7454 36.2955C35.4382 36.0488 35.0393 35.9548 34.6069 35.9548V36.8065C34.927 36.8065 35.1094 36.8771 35.212 36.9596L35.7454 36.2955ZM34.6069 35.9548H33.972V36.8065H34.6069V35.9548ZM34.3921 36.45L34.5735 35.3514L33.7332 35.2127L33.5518 36.3112L34.3921 36.45ZM34.1534 35.7079H34.6069V34.8562H34.1534V35.7079ZM34.6069 35.7079C34.9861 35.7079 35.3371 35.6142 35.6239 35.3917L35.1018 34.7188C34.9988 34.7987 34.8459 34.8562 34.6069 34.8562V35.7079ZM35.6211 35.3939C35.949 35.1438 36.086 34.775 36.086 34.3699H35.2343C35.2343 34.5763 35.1731 34.6644 35.1046 34.7167L35.6211 35.3939ZM36.086 34.3699C36.086 33.9915 35.9429 33.6577 35.6447 33.4181L35.1112 34.082C35.1893 34.1448 35.2343 34.2242 35.2343 34.3699H36.086ZM35.6447 33.4181C35.3643 33.1928 35.0195 33.0974 34.6472 33.0974V33.9492C34.873 33.9492 35.0153 34.005 35.1112 34.082L35.6447 33.4181ZM34.6472 33.0974C34.3123 33.0974 33.9958 33.1623 33.705 33.2992L34.0676 34.0699C34.2337 33.9918 34.4245 33.9492 34.6472 33.9492V33.0974ZM33.7027 33.3003C33.4337 33.4288 33.1857 33.6032 32.9582 33.8191L33.5445 34.4369C33.7134 34.2766 33.8887 34.1554 34.0698 34.0688L33.7027 33.3003ZM33.5579 33.8324L32.7415 32.9858L32.1284 33.577L32.9448 34.4236L33.5579 33.8324ZM32.7312 33.5873C33.0121 33.3153 33.3232 33.1131 33.6659 32.9766L33.3508 32.1853C32.9006 32.3646 32.4961 32.6294 32.1387 32.9755L32.7312 33.5873ZM33.6688 32.9754C34.0084 32.8373 34.3915 32.7649 34.8236 32.7649V31.9132C34.2949 31.9132 33.8011 32.0021 33.3479 32.1865L33.6688 32.9754ZM40.6452 34.2666C39.8715 34.2666 39.2316 34.8849 39.2316 35.6701H40.0833C40.0833 35.3667 40.3304 35.1183 40.6452 35.1183V34.2666ZM39.2316 35.6701C39.2316 36.4552 39.8715 37.0736 40.6452 37.0736V36.2218C40.3304 36.2218 40.0833 35.9735 40.0833 35.6701H39.2316ZM40.6452 37.0736C41.4117 37.0736 42.0487 36.4524 42.0487 35.6701H41.197C41.197 35.9763 40.947 36.2218 40.6452 36.2218V37.0736ZM42.0487 35.6701C42.0487 34.8878 41.4117 34.2666 40.6452 34.2666V35.1183C40.947 35.1183 41.197 35.3639 41.197 35.6701H42.0487ZM46.3901 34.4505L45.9803 34.5664L45.9805 34.5671L46.3901 34.4505ZM45.7702 33.0949L45.4097 33.3216L45.4118 33.3248L45.7702 33.0949ZM44.6717 31.694L44.3864 31.3778C44.3019 31.4541 44.2514 31.561 44.2462 31.6747C44.2411 31.7885 44.2817 31.8995 44.359 31.9831L44.6717 31.694ZM45.5989 30.8575L45.8767 30.5347C45.7142 30.3948 45.4729 30.3976 45.3136 30.5413L45.5989 30.8575ZM47.8817 37.9781L48.2835 38.1195L47.8817 37.9781ZM45.5989 41.0874L45.3136 41.4036C45.4729 41.5473 45.7142 41.5501 45.8767 41.4102L45.5989 41.0874ZM44.6717 40.2509L44.3587 39.962C44.2816 40.0456 44.241 40.1566 44.2462 40.2703C44.2514 40.384 44.3019 40.4908 44.3864 40.5671L44.6717 40.2509ZM45.8156 38.8096L46.1745 39.0388L46.1753 39.0375L45.8156 38.8096ZM46.4102 37.4792L46.8221 37.5876L46.8223 37.5868L46.4102 37.4792ZM47.0125 35.9724C47.0125 35.3848 46.943 34.8376 46.7997 34.3339L45.9805 34.5671C46.0992 34.984 46.1608 35.4514 46.1608 35.9724H47.0125ZM46.7999 34.3347C46.6566 33.8275 46.4317 33.3375 46.1287 32.8651L45.4118 33.3248C45.6732 33.7326 45.8616 34.1464 45.9803 34.5664L46.7999 34.3347ZM46.1308 32.8683C45.8347 32.3975 45.4511 31.9097 44.9843 31.4049L44.359 31.9831C44.7993 32.4593 45.1481 32.9055 45.4097 33.3216L46.1308 32.8683ZM44.9569 32.0102L45.8842 31.1737L45.3136 30.5413L44.3864 31.3778L44.9569 32.0102ZM45.3211 31.1802C45.8319 31.6199 46.2716 32.0811 46.642 32.5632L47.3174 32.0443C46.9084 31.5119 46.4276 31.0088 45.8767 30.5347L45.3211 31.1802ZM46.642 32.5632C47.0043 33.0349 47.2834 33.5494 47.48 34.1081L48.2835 33.8254C48.0568 33.1814 47.7345 32.5872 47.3174 32.0443L46.642 32.5632ZM47.48 34.1081C47.6735 34.6577 47.7734 35.2775 47.7734 35.9724H48.6251C48.6251 35.1958 48.5133 34.4786 48.2835 33.8254L47.48 34.1081ZM47.7734 35.9724C47.7734 36.6673 47.6735 37.2872 47.48 37.8367L48.2835 38.1195C48.5133 37.4663 48.6251 36.749 48.6251 35.9724H47.7734ZM47.48 37.8367C47.2834 38.3955 47.0043 38.91 46.642 39.3817L47.3174 39.9005C47.7345 39.3576 48.0568 38.7635 48.2835 38.1195L47.48 37.8367ZM46.642 39.3817C46.2716 39.8638 45.8319 40.325 45.3211 40.7646L45.8767 41.4102C46.4276 40.936 46.9084 40.433 47.3174 39.9005L46.642 39.3817ZM45.8842 40.7712L44.9569 39.9347L44.3864 40.5671L45.3136 41.4036L45.8842 40.7712ZM44.9846 40.5397C45.4796 40.0035 45.8782 39.503 46.1745 39.0388L45.4567 38.5804C45.1953 38.9897 44.8313 39.4501 44.3587 39.962L44.9846 40.5397ZM46.1753 39.0375C46.4746 38.5651 46.6921 38.0817 46.8221 37.5876L45.9984 37.3708C45.8933 37.7704 45.7143 38.1739 45.4559 38.5817L46.1753 39.0375ZM46.8223 37.5868C46.9506 37.0956 47.0125 36.5564 47.0125 35.9724H46.1608C46.1608 36.4972 46.1051 36.9625 45.9982 37.3716L46.8223 37.5868ZM53.532 32.3542L53.9444 32.4602C53.9999 32.2444 53.8797 32.0223 53.6687 31.9508L53.532 32.3542ZM52.3125 31.9409L52.4491 31.5376C52.325 31.4955 52.1885 31.513 52.0789 31.5848C51.9693 31.6567 51.899 31.775 51.8881 31.9056L52.3125 31.9409ZM51.4658 36.0934L51.864 36.2445L51.8649 36.2422L51.4658 36.0934ZM49.6214 38.7441L49.379 38.394C49.1875 38.5265 49.1381 38.7884 49.268 38.9817L49.6214 38.7441ZM50.4076 39.9132L50.0542 40.1509C50.1218 40.2515 50.2292 40.3185 50.3493 40.3351C50.4694 40.3517 50.5908 40.3163 50.6833 40.2378L50.4076 39.9132ZM52.3528 36.9904L52.7487 37.1473L52.7501 37.1438L52.3528 36.9904ZM53.28 33.4729L52.8614 33.3944L52.8607 33.3987L53.28 33.4729ZM53.6687 31.9508L52.4491 31.5376L52.1758 32.3443L53.3953 32.7575L53.6687 31.9508ZM51.8881 31.9056C51.7692 33.3326 51.4924 34.8032 51.0668 35.9446L51.8649 36.2422C52.3262 35.0049 52.6139 33.452 52.7369 31.9763L51.8881 31.9056ZM51.0677 35.9422C50.6692 36.992 50.0648 37.9192 49.379 38.394L49.8638 39.0942C50.7504 38.4805 51.436 37.3718 51.864 36.2445L51.0677 35.9422ZM49.268 38.9817L50.0542 40.1509L50.761 39.6756L49.9748 38.5065L49.268 38.9817ZM50.6833 40.2378C51.4887 39.5537 52.309 38.2569 52.7487 37.1473L51.9569 36.8335C51.5499 37.8605 50.798 39.0229 50.1319 39.5886L50.6833 40.2378ZM52.7501 37.1438C53.1566 36.0911 53.4951 34.7013 53.6994 33.5471L52.8607 33.3987C52.6618 34.5223 52.3351 35.8538 51.9555 36.837L52.7501 37.1438ZM53.6986 33.5514C53.757 33.24 53.8555 32.8059 53.9444 32.4602L53.1195 32.2481C53.027 32.6079 52.924 33.0608 52.8615 33.3944L53.6986 33.5514Z" fill="#FDD758"/>
<path d="M52.114 18.9467C51.3633 18.9467 50.796 19.1975 50.4123 19.6991C50.0285 20.2007 49.8366 20.8723 49.8366 21.7139C49.8366 22.2558 49.9241 22.7356 50.0992 23.153C50.2743 23.5704 50.5318 23.8987 50.8718 24.1377C51.2118 24.3733 51.6292 24.4911 52.1241 24.4911C52.8748 24.4911 53.4437 24.2387 53.8309 23.7337C54.218 23.2287 54.4116 22.5588 54.4116 21.724C54.4116 21.1786 54.324 20.6972 54.149 20.2798C53.9739 19.859 53.7164 19.5324 53.3764 19.3001C53.033 19.0645 52.6122 18.9467 52.114 18.9467ZM52.114 19.6385C52.5718 19.6385 52.9186 19.8085 53.1542 20.1485C53.3865 20.4885 53.5026 21.0136 53.5026 21.724C53.5026 22.4275 53.3882 22.9493 53.1593 23.2893C52.927 23.626 52.5819 23.7943 52.1241 23.7943C51.6663 23.7943 51.3229 23.6243 51.094 23.2843C50.8617 22.9443 50.7455 22.4208 50.7455 21.7139C50.7455 21.0069 50.86 20.4851 51.0889 20.1485C51.3178 19.8085 51.6595 19.6385 52.114 19.6385ZM46.9522 20.8403C46.9522 21.5439 46.8731 22.1515 46.7149 22.6632C46.5533 23.1715 46.3126 23.6361 45.9928 24.0569C45.673 24.4777 45.2724 24.9002 44.791 25.3243L45.2353 25.7889C45.7807 25.3445 46.2486 24.8884 46.6391 24.4204C47.0263 23.9525 47.3242 23.4307 47.5329 22.8551C47.7382 22.2794 47.8409 21.6078 47.8409 20.8403C47.8409 20.0727 47.7382 19.4011 47.5329 18.8255C47.3242 18.2498 47.0263 17.728 46.6391 17.2601C46.2486 16.7922 45.7807 16.336 45.2353 15.8917L44.791 16.3562C45.2757 16.7871 45.678 17.2113 45.9978 17.6287C46.3176 18.0462 46.5566 18.509 46.7149 19.0174C46.8731 19.5257 46.9522 20.1333 46.9522 20.8403ZM39.1696 16.3259L38.7758 17.0531L40.8865 17.9115L41.1491 17.457L39.1696 16.3259ZM33.5786 15.8967L31.6699 19.0527H32.5939L33.9674 16.6592L35.3359 19.0527H36.2448L34.3361 15.8967H33.5786ZM26.0132 16.2552H25.276L26.3364 14.8918H27.5079L26.0132 16.2552ZM16.9189 20.8403C16.9189 20.1333 16.998 19.5257 17.1562 19.0174C17.3144 18.509 17.5534 18.0462 17.8732 17.6287C18.1931 17.2113 18.5953 16.7871 19.0801 16.3562L18.6357 15.8917C18.0904 16.336 17.6241 16.7922 17.237 17.2601C16.8465 17.728 16.5486 18.2498 16.3432 18.8255C16.1345 19.4011 16.0301 20.0727 16.0301 20.8403C16.0301 21.6078 16.1345 22.2794 16.3432 22.8551C16.5486 23.4307 16.8465 23.9525 17.237 24.4204C17.6241 24.8884 18.0904 25.3445 18.6357 25.7889L19.0801 25.3243C18.5987 24.9002 18.1981 24.4777 17.8783 24.0569C17.5585 23.6361 17.3195 23.1715 17.1612 22.6632C16.9997 22.1515 16.9189 21.5439 16.9189 20.8403ZM11.7369 18.9467C10.9862 18.9467 10.4189 19.1975 10.0351 19.6991C9.65137 20.2007 9.45949 20.8723 9.45949 21.7139C9.45949 22.2558 9.54702 22.7356 9.72207 23.153C9.89712 23.5704 10.1547 23.8987 10.4947 24.1377C10.8347 24.3733 11.2521 24.4911 11.747 24.4911C12.4977 24.4911 13.0666 24.2387 13.4537 23.7337C13.8409 23.2287 14.0344 22.5588 14.0344 21.724C14.0344 21.1786 13.9469 20.6972 13.7719 20.2798C13.5968 19.859 13.3393 19.5324 12.9993 19.3001C12.6559 19.0645 12.2351 18.9467 11.7369 18.9467ZM11.7369 19.6385C12.1947 19.6385 12.5414 19.8085 12.7771 20.1485C13.0094 20.4885 13.1255 21.0136 13.1255 21.724C13.1255 22.4275 13.011 22.9493 12.7821 23.2893C12.5498 23.626 12.2048 23.7943 11.747 23.7943C11.2891 23.7943 10.9458 23.6243 10.7168 23.2843C10.4846 22.9443 10.3684 22.4208 10.3684 21.7139C10.3684 21.0069 10.4829 20.4851 10.7118 20.1485C10.9407 19.8085 11.2824 19.6385 11.7369 19.6385Z" fill="#79E35E"/>
<path d="M50.4123 19.6991L50.0196 19.3987L50.0196 19.3987L50.4123 19.6991ZM50.0992 23.153L50.5551 22.9618L50.5551 22.9618L50.0992 23.153ZM50.8718 24.1377L50.5902 24.544L50.5875 24.5421L50.8718 24.1377ZM53.8309 23.7337L53.4385 23.4329L53.4385 23.4329L53.8309 23.7337ZM54.149 20.2798L53.6931 20.471L53.6925 20.4697L54.149 20.2798ZM53.3764 19.3001L53.0975 19.7083L53.0967 19.7078L53.3764 19.3001ZM53.1542 20.1485L53.5605 19.8669L53.5624 19.8696L53.1542 20.1485ZM53.1593 23.2893L53.5694 23.5654L53.5662 23.5701L53.1593 23.2893ZM51.094 23.2843L51.5022 23.0054L51.5041 23.0082L51.094 23.2843ZM51.0889 20.1485L51.499 20.4246L51.4977 20.4265L51.0889 20.1485ZM52.114 19.441C51.4846 19.441 51.0769 19.6439 50.8049 19.9995L50.0196 19.3987C50.5151 18.751 51.242 18.4523 52.114 18.4523V19.441ZM50.8049 19.9995C50.5061 20.3901 50.331 20.9449 50.331 21.7139H49.3423C49.3423 20.7996 49.5509 20.0113 50.0196 19.3987L50.8049 19.9995ZM50.331 21.7139C50.331 22.2029 50.4099 22.6156 50.5551 22.9618L49.6433 23.3442C49.4384 22.8555 49.3423 22.3088 49.3423 21.7139H50.331ZM50.5551 22.9618C50.6975 23.3014 50.899 23.5525 51.1561 23.7332L50.5875 24.5421C50.1646 24.2448 49.851 23.8395 49.6433 23.3442L50.5551 22.9618ZM51.1534 23.7313C51.3955 23.8992 51.7097 23.9968 52.1241 23.9968V24.9855C51.5487 24.9855 51.028 24.8475 50.5902 24.544L51.1534 23.7313ZM52.1241 23.9968C52.7522 23.9968 53.1624 23.7931 53.4385 23.4329L54.2232 24.0345C53.7251 24.6842 52.9974 24.9855 52.1241 24.9855V23.9968ZM53.4385 23.4329C53.7414 23.0378 53.9172 22.4841 53.9172 21.724H54.9059C54.9059 22.6336 54.6946 23.4197 54.2232 24.0345L53.4385 23.4329ZM53.9172 21.724C53.9172 21.2311 53.8381 20.8168 53.6931 20.471L54.6049 20.0886C54.81 20.5776 54.9059 21.1261 54.9059 21.724H53.9172ZM53.6925 20.4697C53.5502 20.1275 53.3501 19.8809 53.0975 19.7083L53.6553 18.8919C54.0827 19.1839 54.3977 19.5904 54.6054 20.0899L53.6925 20.4697ZM53.0967 19.7078C52.8507 19.539 52.5323 19.441 52.114 19.441V18.4523C52.6921 18.4523 53.2153 18.59 53.6561 18.8925L53.0967 19.7078ZM52.114 19.1441C52.7137 19.1441 53.2216 19.3778 53.5605 19.8669L52.7479 20.4301C52.6156 20.2391 52.4299 20.1328 52.114 20.1328V19.1441ZM53.5624 19.8696C53.8785 20.3323 53.997 20.9782 53.997 21.724H53.0083C53.0083 21.0491 52.8945 20.6447 52.746 20.4274L53.5624 19.8696ZM53.997 21.724C53.997 22.4633 53.88 23.104 53.5693 23.5654L52.7492 23.0132C52.8963 22.7947 53.0083 22.3918 53.0083 21.724H53.997ZM53.5662 23.5701C53.2295 24.0581 52.7218 24.2887 52.1241 24.2887V23.2999C52.4421 23.2999 52.6245 23.1939 52.7524 23.0086L53.5662 23.5701ZM52.1241 24.2887C51.5243 24.2887 51.0166 24.0545 50.6839 23.5604L51.5041 23.0082C51.6292 23.194 51.8082 23.2999 52.1241 23.2999V24.2887ZM50.6858 23.5632C50.3699 23.1008 50.2512 22.4569 50.2512 21.7139H51.2399C51.2399 22.3847 51.3535 22.7878 51.5022 23.0054L50.6858 23.5632ZM50.2512 21.7139C50.2512 20.9724 50.3677 20.3299 50.6801 19.8705L51.4977 20.4265C51.3523 20.6404 51.2399 21.0415 51.2399 21.7139H50.2512ZM50.6788 19.8724C51.0108 19.3794 51.5161 19.1441 52.114 19.1441V20.1328C51.803 20.1328 51.6249 20.2376 51.499 20.4246L50.6788 19.8724ZM46.7149 22.6632L47.1872 22.8092L47.186 22.8129L46.7149 22.6632ZM45.9928 24.0569L46.3864 24.356L46.3864 24.356L45.9928 24.0569ZM44.791 25.3243L44.4337 25.666C44.3407 25.5688 44.2913 25.4377 44.297 25.3032C44.3028 25.1687 44.3631 25.0424 44.4641 24.9534L44.791 25.3243ZM45.2353 25.7889L45.5476 26.1721C45.3477 26.335 45.0563 26.3169 44.8781 26.1306L45.2353 25.7889ZM46.6391 24.4204L47.02 24.7356L47.0187 24.7372L46.6391 24.4204ZM47.5329 22.8551L47.9985 23.0212L47.9977 23.0236L47.5329 22.8551ZM47.5329 18.8255L47.9977 18.657L47.9985 18.6594L47.5329 18.8255ZM46.6391 17.2601L47.0187 16.9433L47.02 16.945L46.6391 17.2601ZM45.2353 15.8917L44.8781 15.5499C45.0563 15.3636 45.3477 15.3456 45.5476 15.5084L45.2353 15.8917ZM44.791 16.3562L44.4625 16.7257C44.3622 16.6365 44.3024 16.5104 44.297 16.3762C44.2916 16.2421 44.3409 16.1115 44.4337 16.0145L44.791 16.3562ZM45.9978 17.6287L46.3902 17.3281L46.3902 17.3281L45.9978 17.6287ZM46.7149 19.0174L47.1869 18.8704L47.1869 18.8704L46.7149 19.0174ZM47.4466 20.8403C47.4466 21.5788 47.3638 22.2381 47.1872 22.8092L46.2426 22.5171C46.3824 22.0649 46.4578 21.5089 46.4578 20.8403H47.4466ZM47.186 22.8129C47.0074 23.3746 46.7407 23.8898 46.3864 24.356L45.5992 23.7577C45.8845 23.3824 46.0991 22.9684 46.2437 22.5134L47.186 22.8129ZM46.3864 24.356C46.0431 24.8077 45.6187 25.2538 45.1178 25.6952L44.4641 24.9534C44.926 24.5465 45.3029 24.1476 45.5992 23.7577L46.3864 24.356ZM45.1482 24.9826L45.5926 25.4472L44.8781 26.1306L44.4337 25.666L45.1482 24.9826ZM44.923 25.4056C45.4476 24.9783 45.8921 24.544 46.2596 24.1037L47.0187 24.7372C46.6051 25.2328 46.1138 25.7108 45.5476 26.1721L44.923 25.4056ZM46.2582 24.1053C46.6089 23.6814 46.8786 23.2093 47.0681 22.6866L47.9977 23.0236C47.7698 23.6521 47.4436 24.2236 47.02 24.7356L46.2582 24.1053ZM47.0673 22.689C47.2494 22.1783 47.3466 21.5651 47.3466 20.8403H48.3353C48.3353 21.6506 48.2271 22.3805 47.9985 23.0212L47.0673 22.689ZM47.3466 20.8403C47.3466 20.1155 47.2494 19.5023 47.0673 18.9916L47.9985 18.6594C48.2271 19.3 48.3353 20.03 48.3353 20.8403H47.3466ZM47.0681 18.994C46.8786 18.4712 46.6089 17.9991 46.2582 17.5752L47.02 16.945C47.4436 17.457 47.7698 18.0284 47.9977 18.657L47.0681 18.994ZM46.2596 17.5769C45.8921 17.1366 45.4476 16.7023 44.923 16.2749L45.5476 15.5084C46.1138 15.9698 46.6051 16.4478 47.0187 16.9433L46.2596 17.5769ZM45.5926 16.2334L45.1482 16.6979L44.4337 16.0145L44.8781 15.5499L45.5926 16.2334ZM45.1194 15.9867C45.6224 16.4339 46.0475 16.8807 46.3902 17.3281L45.6054 17.9294C45.3085 17.5418 44.929 17.1404 44.4625 16.7257L45.1194 15.9867ZM46.3902 17.3281C46.7459 17.7922 47.0116 18.3073 47.1869 18.8704L46.2428 19.1643C46.1017 18.7108 45.8894 18.3001 45.6054 17.9294L46.3902 17.3281ZM47.1869 18.8704C47.3639 19.439 47.4466 20.0988 47.4466 20.8403H46.4578C46.4578 20.1679 46.3823 19.6124 46.2428 19.1643L47.1869 18.8704ZM39.1696 16.3259L38.7349 16.0905C38.7983 15.9735 38.9062 15.887 39.0342 15.8505C39.1621 15.814 39.2994 15.8307 39.4149 15.8967L39.1696 16.3259ZM38.7758 17.0531L38.5895 17.511C38.4593 17.4581 38.3578 17.3522 38.3104 17.2198C38.263 17.0875 38.2741 16.9412 38.3411 16.8176L38.7758 17.0531ZM40.8865 17.9115L41.3146 18.1588C41.1911 18.3725 40.9289 18.4624 40.7003 18.3694L40.8865 17.9115ZM41.1491 17.457L41.3944 17.0278C41.5086 17.0931 41.592 17.2011 41.6263 17.3281C41.6606 17.4551 41.6429 17.5905 41.5771 17.7044L41.1491 17.457ZM39.6043 16.5614L39.2105 17.2885L38.3411 16.8176L38.7349 16.0905L39.6043 16.5614ZM38.962 16.5951L41.0728 17.4536L40.7003 18.3694L38.5895 17.511L38.962 16.5951ZM40.4585 17.6642L40.721 17.2097L41.5771 17.7044L41.3146 18.1588L40.4585 17.6642ZM40.9038 17.8863L38.9244 16.7552L39.4149 15.8967L41.3944 17.0278L40.9038 17.8863ZM33.5786 15.8967L33.1556 15.6409C33.2452 15.4928 33.4056 15.4023 33.5786 15.4023V15.8967ZM31.6699 19.0527V19.5471C31.4915 19.5471 31.3269 19.4509 31.2392 19.2955C31.1516 19.1401 31.1545 18.9495 31.2469 18.7969L31.6699 19.0527ZM32.5939 19.0527L33.0227 19.2988C32.9346 19.4524 32.771 19.5471 32.5939 19.5471V19.0527ZM33.9674 16.6592L33.5387 16.4131C33.6269 16.2594 33.7906 16.1647 33.9678 16.1648C34.1451 16.165 34.3087 16.26 34.3966 16.4138L33.9674 16.6592ZM35.3359 19.0527V19.5471C35.1585 19.5471 34.9947 19.4521 34.9067 19.2981L35.3359 19.0527ZM36.2448 19.0527L36.6678 18.7969C36.7602 18.9495 36.7631 19.1401 36.6754 19.2955C36.5878 19.4509 36.4232 19.5471 36.2448 19.5471V19.0527ZM34.3361 15.8967V15.4023C34.5091 15.4023 34.6695 15.4928 34.7591 15.6409L34.3361 15.8967ZM34.0016 16.1526L32.0929 19.3086L31.2469 18.7969L33.1556 15.6409L34.0016 16.1526ZM31.6699 18.5583H32.5939V19.5471H31.6699V18.5583ZM32.1652 18.8067L33.5387 16.4131L34.3962 16.9053L33.0227 19.2988L32.1652 18.8067ZM34.3966 16.4138L35.7651 18.8073L34.9067 19.2981L33.5383 16.9046L34.3966 16.4138ZM35.3359 18.5583H36.2448V19.5471H35.3359V18.5583ZM35.8218 19.3086L33.913 16.1526L34.7591 15.6409L36.6678 18.7969L35.8218 19.3086ZM34.3361 16.3911H33.5786V15.4023H34.3361V16.3911ZM26.0132 16.2552L26.3464 16.6205C26.2553 16.7035 26.1365 16.7496 26.0132 16.7496V16.2552ZM25.276 16.2552V16.7496C25.0871 16.7496 24.9148 16.642 24.8319 16.4724C24.7489 16.3028 24.7698 16.1008 24.8857 15.9517L25.276 16.2552ZM26.3364 14.8918L25.9462 14.5883C26.0398 14.4679 26.1838 14.3975 26.3364 14.3975V14.8918ZM27.5079 14.8918V14.3975C27.712 14.3975 27.8951 14.5229 27.9688 14.7132C28.0426 14.9035 27.9918 15.1195 27.8411 15.2571L27.5079 14.8918ZM26.0132 16.7496H25.276V15.7609H26.0132V16.7496ZM24.8857 15.9517L25.9462 14.5883L26.7266 15.1953L25.6662 16.5587L24.8857 15.9517ZM26.3364 14.3975H27.5079V15.3862H26.3364V14.3975ZM27.8411 15.2571L26.3464 16.6205L25.68 15.89L27.1747 14.5266L27.8411 15.2571ZM17.1562 19.0174L16.6842 18.8704L16.6842 18.8704L17.1562 19.0174ZM17.8732 17.6287L17.4808 17.3281L17.4808 17.3281L17.8732 17.6287ZM19.0801 16.3562L19.4374 16.0145C19.5301 16.1115 19.5795 16.2421 19.5741 16.3762C19.5686 16.5104 19.5089 16.6365 19.4085 16.7257L19.0801 16.3562ZM18.6357 15.8917L18.3235 15.5084C18.5233 15.3456 18.8148 15.3636 18.993 15.5499L18.6357 15.8917ZM17.237 17.2601L17.6179 17.5752L17.6166 17.5769L17.237 17.2601ZM16.3432 18.8255L16.8088 18.9916L16.808 18.994L16.3432 18.8255ZM16.3432 22.8551L16.808 22.6866L16.8088 22.689L16.3432 22.8551ZM17.237 24.4204L17.6166 24.1037L17.6179 24.1053L17.237 24.4204ZM18.6357 25.7889L18.993 26.1306C18.8148 26.3169 18.5233 26.335 18.3235 26.1721L18.6357 25.7889ZM19.0801 25.3243L19.4069 24.9534C19.5079 25.0424 19.5683 25.1687 19.574 25.3032C19.5798 25.4377 19.5304 25.5688 19.4374 25.666L19.0801 25.3243ZM17.8783 24.0569L17.4847 24.356L17.4847 24.356L17.8783 24.0569ZM17.1612 22.6632L17.6327 22.5143L17.6333 22.5163L17.1612 22.6632ZM16.4245 20.8403C16.4245 20.0988 16.5072 19.439 16.6842 18.8704L17.6282 19.1643C17.4888 19.6124 17.4132 20.1679 17.4132 20.8403H16.4245ZM16.6842 18.8704C16.8595 18.3073 17.1252 17.7922 17.4808 17.3281L18.2657 17.9294C17.9817 18.3001 17.7694 18.7108 17.6282 19.1643L16.6842 18.8704ZM17.4808 17.3281C17.8235 16.8807 18.2486 16.4339 18.7517 15.9867L19.4085 16.7257C18.9421 17.1404 18.5626 17.5418 18.2657 17.9294L17.4808 17.3281ZM18.7228 16.6979L18.2785 16.2334L18.993 15.5499L19.4374 16.0145L18.7228 16.6979ZM18.948 16.2749C18.4239 16.702 17.9815 17.1357 17.6179 17.5752L16.8561 16.945C17.2668 16.4486 17.7569 15.9701 18.3235 15.5084L18.948 16.2749ZM17.6166 17.5769C17.2635 17.9999 16.9947 18.4707 16.8088 18.9916L15.8776 18.6594C16.1025 18.029 16.4295 17.4562 16.8574 16.9433L17.6166 17.5769ZM16.808 18.994C16.6231 19.5039 16.5245 20.1162 16.5245 20.8403H15.5358C15.5358 20.0292 15.6459 19.2984 15.8785 18.657L16.808 18.994ZM16.5245 20.8403C16.5245 21.5643 16.6231 22.1767 16.808 22.6866L15.8785 23.0236C15.6459 22.3822 15.5358 21.6513 15.5358 20.8403H16.5245ZM16.8088 22.689C16.9947 23.2099 17.2635 23.6806 17.6166 24.1037L16.8574 24.7372C16.4295 24.2244 16.1025 23.6516 15.8776 23.0212L16.8088 22.689ZM17.6179 24.1053C17.9815 24.5448 18.4239 24.9786 18.948 25.4056L18.3235 26.1721C17.7569 25.7105 17.2668 25.2319 16.8561 24.7356L17.6179 24.1053ZM18.2785 25.4472L18.7228 24.9826L19.4374 25.666L18.993 26.1306L18.2785 25.4472ZM18.7533 25.6952C18.2523 25.2538 17.828 24.8077 17.4847 24.356L18.2719 23.7577C18.5682 24.1476 18.9451 24.5465 19.4069 24.9534L18.7533 25.6952ZM17.4847 24.356C17.1298 23.8891 16.8644 23.3729 16.6892 22.8101L17.6333 22.5163C17.7745 22.9701 17.9871 23.3831 18.2719 23.7577L17.4847 24.356ZM16.6898 22.8121C16.5091 22.2399 16.4245 21.5796 16.4245 20.8403H17.4132C17.4132 21.5081 17.4902 22.0631 17.6327 22.5143L16.6898 22.8121ZM10.0351 19.6991L9.64251 19.3987L9.64252 19.3987L10.0351 19.6991ZM9.72207 23.153L10.178 22.9618L10.178 22.9618L9.72207 23.153ZM10.4947 24.1377L10.213 24.544L10.2104 24.5421L10.4947 24.1377ZM13.4537 23.7337L13.0614 23.4329L13.0614 23.4329L13.4537 23.7337ZM13.7719 20.2798L13.3159 20.471L13.3154 20.4697L13.7719 20.2798ZM12.9993 19.3001L12.7204 19.7083L12.7195 19.7078L12.9993 19.3001ZM12.7771 20.1485L13.1834 19.8669L13.1853 19.8696L12.7771 20.1485ZM12.7821 23.2893L13.1922 23.5654L13.189 23.5701L12.7821 23.2893ZM10.7168 23.2843L11.1251 23.0054L11.1269 23.0082L10.7168 23.2843ZM10.7118 20.1485L11.1219 20.4246L11.1206 20.4265L10.7118 20.1485ZM11.7369 19.441C11.1075 19.441 10.6998 19.6439 10.4278 19.9995L9.64252 19.3987C10.138 18.751 10.8648 18.4523 11.7369 18.4523V19.441ZM10.4278 19.9995C10.1289 20.3901 9.95386 20.9449 9.95386 21.7139H8.96512C8.96512 20.7996 9.17382 20.0113 9.64251 19.3987L10.4278 19.9995ZM9.95386 21.7139C9.95386 22.2029 10.0328 22.6156 10.178 22.9618L9.26617 23.3442C9.06124 22.8555 8.96512 22.3088 8.96512 21.7139H9.95386ZM10.178 22.9618C10.3204 23.3014 10.5218 23.5525 10.779 23.7332L10.2104 24.5421C9.78747 24.2448 9.47388 23.8395 9.26617 23.3442L10.178 22.9618ZM10.7763 23.7313C11.0184 23.8992 11.3326 23.9968 11.747 23.9968V24.9855C11.1716 24.9855 10.6509 24.8475 10.2131 24.544L10.7763 23.7313ZM11.747 23.9968C12.375 23.9968 12.7853 23.7931 13.0614 23.4329L13.8461 24.0345C13.3479 24.6842 12.6203 24.9855 11.747 24.9855V23.9968ZM13.0614 23.4329C13.3643 23.0378 13.5401 22.4841 13.5401 21.724H14.5288C14.5288 22.6336 14.3174 23.4197 13.8461 24.0345L13.0614 23.4329ZM13.5401 21.724C13.5401 21.2311 13.461 20.8168 13.316 20.471L14.2278 20.0886C14.4328 20.5776 14.5288 21.1261 14.5288 21.724H13.5401ZM13.3154 20.4697C13.1731 20.1275 12.973 19.8809 12.7204 19.7083L13.2781 18.8919C13.7056 19.1839 14.0205 19.5904 14.2283 20.0899L13.3154 20.4697ZM12.7195 19.7078C12.4736 19.539 12.1552 19.441 11.7369 19.441V18.4523C12.315 18.4523 12.8382 18.59 13.279 18.8925L12.7195 19.7078ZM11.7369 19.1441C12.3366 19.1441 12.8444 19.3778 13.1834 19.8669L12.3708 20.4301C12.2384 20.2391 12.0528 20.1328 11.7369 20.1328V19.1441ZM13.1853 19.8696C13.5013 20.3323 13.6199 20.9782 13.6199 21.724H12.6311C12.6311 21.0491 12.5174 20.6447 12.3689 20.4274L13.1853 19.8696ZM13.6199 21.724C13.6199 22.4633 13.5029 23.104 13.1922 23.5654L12.372 23.0132C12.5192 22.7947 12.6311 22.3918 12.6311 21.724H13.6199ZM13.189 23.5701C12.8523 24.0581 12.3447 24.2887 11.747 24.2887V23.2999C12.0649 23.2999 12.2474 23.1939 12.3752 23.0086L13.189 23.5701ZM11.747 24.2887C11.1472 24.2887 10.6395 24.0545 10.3068 23.5604L11.1269 23.0082C11.2521 23.194 11.4311 23.2999 11.747 23.2999V24.2887ZM10.3086 23.5632C9.99277 23.1008 9.87405 22.4569 9.87405 21.7139H10.8628C10.8628 22.3847 10.9764 22.7878 11.125 23.0054L10.3086 23.5632ZM9.87405 21.7139C9.87405 20.9724 9.9906 20.3299 10.303 19.8705L11.1206 20.4265C10.9751 20.6404 10.8628 21.0415 10.8628 21.7139H9.87405ZM10.3017 19.8724C10.6336 19.3794 11.1389 19.1441 11.7369 19.1441V20.1328C11.4259 20.1328 11.2478 20.2376 11.1219 20.4246L10.3017 19.8724Z" fill="#79E35E"/>
<path d="M10.9661 55.9134V54.8045H15.4374V55.9134H10.9661ZM18.2107 51.12C18.2107 51.6119 18.2628 52.0575 18.3672 52.457C18.4715 52.8534 18.6474 53.2469 18.8948 53.6374C19.1422 54.0249 19.4805 54.4512 19.9098 54.9162L19.0871 55.6585C18.6161 55.2531 18.2077 54.8253 17.8619 54.3752C17.5161 53.9251 17.2493 53.4332 17.0615 52.8996C16.8737 52.3661 16.7798 51.7729 16.7798 51.12C16.7798 50.4672 16.8737 49.874 17.0615 49.3404C17.2493 48.8068 17.5161 48.315 17.8619 47.8649C18.2077 47.4148 18.6161 46.987 19.0871 46.5816L19.9098 47.3238C19.5104 47.7591 19.1854 48.1734 18.935 48.5669C18.6846 48.9574 18.5013 49.3583 18.3851 49.7697C18.2688 50.1781 18.2107 50.6282 18.2107 51.12ZM23.698 49.4522C23.698 49.6788 23.6175 49.871 23.4566 50.029C23.2956 50.184 23.0944 50.2615 22.8529 50.2615C22.6145 50.2615 22.4162 50.184 22.2582 50.029C22.1032 49.871 22.0257 49.6788 22.0257 49.4522C22.0257 49.324 22.0451 49.1899 22.0839 49.0498C22.1256 48.9097 22.1971 48.7338 22.2985 48.5222L22.9379 47.1942H23.7383L23.3537 48.777C23.4581 48.8516 23.5415 48.9455 23.6041 49.0587C23.6667 49.172 23.698 49.3032 23.698 49.4522ZM25.7862 49.4522C25.7862 49.6788 25.7042 49.871 25.5402 50.029C25.3793 50.184 25.1795 50.2615 24.9411 50.2615C24.7026 50.2615 24.5029 50.184 24.3419 50.029C24.1839 49.871 24.1049 49.6788 24.1049 49.4522C24.1049 49.324 24.1258 49.1899 24.1675 49.0498C24.2093 48.9097 24.2838 48.7338 24.3911 48.5222L25.026 47.1942H25.8264L25.4329 48.777C25.5402 48.8516 25.6252 48.9455 25.6878 49.0587C25.7534 49.172 25.7862 49.3032 25.7862 49.4522ZM29.2882 52.4659C29.0468 52.4659 28.8292 52.4108 28.6354 52.3005C28.4446 52.1872 28.2926 52.0337 28.1793 51.8399C28.069 51.6462 28.0139 51.4301 28.0139 51.1916C28.0139 50.9471 28.069 50.731 28.1793 50.5432C28.2926 50.3525 28.4446 50.2019 28.6354 50.0916C28.8292 49.9813 29.0468 49.9262 29.2882 49.9262C29.5327 49.9262 29.7503 49.9828 29.941 50.0961C30.1318 50.2064 30.2824 50.3569 30.3927 50.5477C30.5059 50.7385 30.5626 50.9561 30.5626 51.2005C30.5626 51.442 30.5059 51.6581 30.3927 51.8489C30.2824 52.0397 30.1318 52.1902 29.941 52.3005C29.7503 52.4108 29.5327 52.4659 29.2882 52.4659ZM34.4 47.8962C34.8471 47.8962 35.2272 47.9692 35.5402 48.1153C35.8562 48.2584 36.0961 48.4506 36.2601 48.6921C36.427 48.9306 36.5105 49.1944 36.5105 49.4835C36.5105 49.877 36.3942 50.196 36.1617 50.4404C35.9322 50.6818 35.6266 50.8577 35.2451 50.968C35.6713 51.0247 36.0216 51.1707 36.2958 51.4062C36.5701 51.6387 36.7072 52.0054 36.7072 52.5062C36.7072 52.8549 36.6103 53.1724 36.4166 53.4586C36.2258 53.7447 35.9515 53.9743 35.5938 54.1472C35.2361 54.3171 34.8084 54.402 34.3106 54.402C33.8485 54.402 33.4342 54.3215 33.0675 54.1606C32.7009 53.9966 32.3879 53.7671 32.1285 53.472L32.9244 52.7297C33.1033 52.9354 33.3015 53.086 33.5191 53.1813C33.7397 53.2738 33.9722 53.32 34.2167 53.32C34.5237 53.32 34.7741 53.2425 34.9678 53.0874C35.1616 52.9295 35.2585 52.7029 35.2585 52.4078C35.2585 52.0799 35.1661 51.8444 34.9813 51.7013C34.7994 51.5553 34.5416 51.4822 34.2077 51.4822H33.6443L33.8053 50.5075H34.2077C34.482 50.5075 34.7055 50.4404 34.8784 50.3062C35.0543 50.1721 35.1422 49.9694 35.1422 49.6981C35.1422 49.4656 35.0588 49.2823 34.8918 49.1482C34.7249 49.014 34.5088 48.947 34.2435 48.947C33.9961 48.947 33.771 48.9946 33.5683 49.09C33.3686 49.1854 33.1808 49.3166 33.0049 49.4835L32.2806 48.7323C32.5637 48.4581 32.8812 48.2509 33.233 48.1108C33.5847 47.9677 33.9737 47.8962 34.4 47.8962ZM40.0125 52.4659C39.7711 52.4659 39.5535 52.4108 39.3597 52.3005C39.1689 52.1872 39.0169 52.0337 38.9036 51.8399C38.7933 51.6462 38.7382 51.4301 38.7382 51.1916C38.7382 50.9471 38.7933 50.731 38.9036 50.5432C39.0169 50.3525 39.1689 50.2019 39.3597 50.0916C39.5535 49.9813 39.7711 49.9262 40.0125 49.9262C40.257 49.9262 40.4746 49.9828 40.6654 50.0961C40.8561 50.2064 41.0067 50.3569 41.117 50.5477C41.2302 50.7385 41.2869 50.9561 41.2869 51.2005C41.2869 51.442 41.2302 51.6581 41.117 51.8489C41.0067 52.0397 40.8561 52.1902 40.6654 52.3005C40.4746 52.4108 40.257 52.4659 40.0125 52.4659ZM45.7279 51.12C45.7279 50.6282 45.6698 50.1781 45.5535 49.7697C45.4373 49.3583 45.254 48.9574 45.0036 48.5669C44.7561 48.1734 44.4312 47.7591 44.0288 47.3238L44.8515 46.5816C45.3225 46.987 45.7309 47.4148 46.0767 47.8649C46.4225 48.315 46.6893 48.8068 46.8771 49.3404C47.0649 49.874 47.1588 50.4672 47.1588 51.12C47.1588 51.7729 47.0649 52.3661 46.8771 52.8996C46.6893 53.4332 46.4225 53.9251 46.0767 54.3752C45.7309 54.8253 45.3225 55.2531 44.8515 55.6585L44.0288 54.9162C44.4581 54.4512 44.7964 54.0249 45.0438 53.6374C45.2912 53.2469 45.4671 52.8534 45.5714 52.457C45.6758 52.0575 45.7279 51.6119 45.7279 51.12ZM48.5012 55.9134V54.8045H52.9725V55.9134H48.5012Z" fill="#58D5FD"/>
<path d="M10.9661 55.9134H10.5882C10.5882 56.122 10.7574 56.2912 10.9661 56.2912V55.9134ZM10.9661 54.8045V54.4266C10.7574 54.4266 10.5882 54.5958 10.5882 54.8045H10.9661ZM15.4374 54.8045H15.8153C15.8153 54.5958 15.6461 54.4266 15.4374 54.4266V54.8045ZM15.4374 55.9134V56.2912C15.6461 56.2912 15.8153 56.122 15.8153 55.9134H15.4374ZM11.3439 55.9134V54.8045H10.5882V55.9134H11.3439ZM10.9661 55.1823H15.4374V54.4266H10.9661V55.1823ZM15.0596 54.8045V55.9134H15.8153V54.8045H15.0596ZM15.4374 55.5355H10.9661V56.2912H15.4374V55.5355ZM18.3672 52.457L18.0016 52.5525L18.0018 52.5531L18.3672 52.457ZM18.8948 53.6374L18.5756 53.8397L18.5763 53.8408L18.8948 53.6374ZM19.9098 54.9162L20.1629 55.1968C20.2379 55.1292 20.2827 55.0343 20.2873 54.9335C20.2919 54.8326 20.2559 54.7341 20.1875 54.6599L19.9098 54.9162ZM19.0871 55.6585L18.8406 55.9449C18.9848 56.069 19.1989 56.0665 19.3402 55.939L19.0871 55.6585ZM17.0615 52.8996L16.7051 53.0251L16.7051 53.0251L17.0615 52.8996ZM17.0615 49.3404L16.7051 49.215L16.7051 49.215L17.0615 49.3404ZM19.0871 46.5816L19.3402 46.301C19.1989 46.1736 18.9848 46.1711 18.8406 46.2952L19.0871 46.5816ZM19.9098 47.3238L20.1882 47.5793C20.2563 47.5051 20.292 47.4067 20.2872 47.3061C20.2825 47.2054 20.2377 47.1108 20.1629 47.0433L19.9098 47.3238ZM18.935 48.5669L19.2531 48.7709L19.2538 48.7698L18.935 48.5669ZM18.3851 49.7697L18.7485 49.8731L18.7487 49.8724L18.3851 49.7697ZM17.8328 51.12C17.8328 51.6382 17.8877 52.1166 18.0016 52.5525L18.7328 52.3615C18.638 51.9985 18.5885 51.5856 18.5885 51.12H17.8328ZM18.0018 52.5531C18.1171 52.9916 18.31 53.4205 18.5756 53.8397L19.214 53.4352C18.9847 53.0733 18.8259 52.7153 18.7326 52.3608L18.0018 52.5531ZM18.5763 53.8408C18.8393 54.2526 19.193 54.6967 19.6321 55.1725L20.1875 54.6599C19.7681 54.2057 19.4452 53.7973 19.2133 53.4341L18.5763 53.8408ZM19.6567 54.6357L18.834 55.3779L19.3402 55.939L20.1629 55.1968L19.6567 54.6357ZM19.3336 55.3721C18.8804 54.982 18.4902 54.5728 18.1616 54.145L17.5623 54.6054C17.9252 55.0778 18.3518 55.5242 18.8406 55.9449L19.3336 55.3721ZM18.1616 54.145C17.84 53.7265 17.5925 53.27 17.418 52.7742L16.7051 53.0251C16.9062 53.5965 17.1922 54.1237 17.5623 54.6054L18.1616 54.145ZM17.418 52.7742C17.2464 52.2866 17.1577 51.7366 17.1577 51.12H16.402C16.402 51.8091 16.5011 52.4455 16.7051 53.0251L17.418 52.7742ZM17.1577 51.12C17.1577 50.5035 17.2464 49.9535 17.418 49.4659L16.7051 49.215C16.5011 49.7946 16.402 50.431 16.402 51.12H17.1577ZM17.418 49.4659C17.5925 48.9701 17.84 48.5136 18.1616 48.0951L17.5623 47.6347C17.1922 48.1164 16.9062 48.6436 16.7051 49.215L17.418 49.4659ZM18.1616 48.0951C18.4902 47.6673 18.8804 47.2581 19.3336 46.868L18.8406 46.2952C18.3518 46.7159 17.9252 47.1622 17.5623 47.6347L18.1616 48.0951ZM18.834 46.8622L19.6567 47.6044L20.1629 47.0433L19.3402 46.301L18.834 46.8622ZM19.6314 47.0683C19.2207 47.5158 18.8812 47.9477 18.6163 48.364L19.2538 48.7698C19.4897 48.3991 19.8 48.0023 20.1882 47.5793L19.6314 47.0683ZM18.617 48.3629C18.3482 48.7821 18.1486 49.2169 18.0214 49.6669L18.7487 49.8724C18.854 49.4998 19.0211 49.1327 19.2531 48.7708L18.617 48.3629ZM18.0216 49.6662C17.8944 50.1131 17.8328 50.5986 17.8328 51.12H18.5885C18.5885 50.6578 18.6432 50.243 18.7485 49.8731L18.0216 49.6662ZM23.4566 50.029L23.7187 50.3012L23.7213 50.2987L23.4566 50.029ZM22.2582 50.029L21.9885 50.2937L21.9936 50.2987L22.2582 50.029ZM22.0839 49.0498L21.7217 48.9419L21.7197 48.9491L22.0839 49.0498ZM22.2985 48.5222L21.958 48.3582L21.9577 48.359L22.2985 48.5222ZM22.9379 47.1942V46.8163C22.7927 46.8163 22.6604 46.8995 22.5974 47.0303L22.9379 47.1942ZM23.7383 47.1942L24.1055 47.2834C24.1328 47.1707 24.107 47.0518 24.0353 46.9606C23.9637 46.8695 23.8542 46.8163 23.7383 46.8163V47.1942ZM23.3537 48.777L22.9866 48.6878C22.9501 48.8378 23.0085 48.9948 23.1341 49.0845L23.3537 48.777ZM23.6041 49.0587L23.2734 49.2415L23.2734 49.2415L23.6041 49.0587ZM25.5402 50.029L25.8023 50.3012L25.8024 50.3011L25.5402 50.029ZM24.3419 50.029L24.0747 50.2963L24.0798 50.3012L24.3419 50.029ZM24.1675 49.0498L23.8054 48.9419L23.8054 48.9419L24.1675 49.0498ZM24.3911 48.5222L24.7282 48.6931L24.732 48.6852L24.3911 48.5222ZM25.026 47.1942V46.8163C24.8805 46.8163 24.7479 46.8999 24.6851 47.0312L25.026 47.1942ZM25.8264 47.1942L26.1931 47.2853C26.2212 47.1725 26.1957 47.053 26.1241 46.9614C26.0525 46.8698 25.9427 46.8163 25.8264 46.8163V47.1942ZM25.4329 48.777L25.0662 48.6859C25.0284 48.8381 25.0885 48.9979 25.2174 49.0874L25.4329 48.777ZM25.6878 49.0587L25.357 49.2415L25.3608 49.2481L25.6878 49.0587ZM23.3202 49.4522C23.3202 49.5778 23.2801 49.6728 23.1919 49.7594L23.7213 50.2987C23.955 50.0693 24.0759 49.7797 24.0759 49.4522H23.3202ZM23.1945 49.7568C23.1099 49.8383 23.0053 49.8837 22.8529 49.8837V50.6394C23.1835 50.6394 23.4813 50.5298 23.7187 50.3012L23.1945 49.7568ZM22.8529 49.8837C22.705 49.8837 22.6044 49.8393 22.5229 49.7593L21.9936 50.2987C22.2281 50.5288 22.5239 50.6394 22.8529 50.6394V49.8837ZM22.528 49.7644C22.4441 49.6789 22.4036 49.5824 22.4036 49.4522H21.6479C21.6479 49.7751 21.7624 50.0632 21.9885 50.2937L22.528 49.7644ZM22.4036 49.4522C22.4036 49.3623 22.4172 49.2621 22.4481 49.1505L21.7197 48.9491C21.673 49.1177 21.6479 49.2858 21.6479 49.4522H22.4036ZM22.446 49.1577C22.4798 49.0444 22.542 48.8885 22.6393 48.6854L21.9577 48.359C21.8522 48.5792 21.7714 48.775 21.7217 48.9419L22.446 49.1577ZM22.6389 48.6861L23.2784 47.3581L22.5974 47.0303L21.958 48.3582L22.6389 48.6861ZM22.9379 47.572H23.7383V46.8163H22.9379V47.572ZM23.3711 47.105L22.9866 48.6878L23.7209 48.8662L24.1055 47.2834L23.3711 47.105ZM23.1341 49.0845C23.1921 49.126 23.2378 49.1771 23.2734 49.2415L23.9349 48.876C23.8453 48.7138 23.724 48.5772 23.5734 48.4696L23.1341 49.0845ZM23.2734 49.2415C23.3007 49.2908 23.3202 49.3573 23.3202 49.4522H24.0759C24.0759 49.249 24.0328 49.0532 23.9349 48.876L23.2734 49.2415ZM25.4083 49.4522C25.4083 49.5755 25.3685 49.6698 25.278 49.7569L25.8024 50.3011C26.0399 50.0723 26.164 49.782 26.164 49.4522H25.4083ZM25.2781 49.7568C25.1926 49.8392 25.089 49.8837 24.9411 49.8837V50.6394C25.2701 50.6394 25.5659 50.5289 25.8023 50.3012L25.2781 49.7568ZM24.9411 49.8837C24.7931 49.8837 24.6895 49.8392 24.604 49.7568L24.0798 50.3012C24.3162 50.5289 24.6121 50.6394 24.9411 50.6394V49.8837ZM24.6091 49.7618C24.5231 49.6758 24.4828 49.5801 24.4828 49.4522H23.7271C23.7271 49.7774 23.8448 50.0663 24.0747 50.2962L24.6091 49.7618ZM24.4828 49.4522C24.4828 49.3653 24.4969 49.2676 24.5297 49.1577L23.8054 48.9419C23.7547 49.1122 23.7271 49.2828 23.7271 49.4522H24.4828ZM24.5297 49.1577C24.5622 49.0484 24.6256 48.8953 24.7281 48.6931L24.0541 48.3513C23.942 48.5723 23.8563 48.771 23.8054 48.9419L24.5297 49.1577ZM24.732 48.6852L25.3669 47.3572L24.6851 47.0312L24.0502 48.3592L24.732 48.6852ZM25.026 47.572H25.8264V46.8163H25.026V47.572ZM25.4597 47.103L25.0662 48.6859L25.7996 48.8682L26.1931 47.2853L25.4597 47.103ZM25.2174 49.0874C25.2775 49.1291 25.3228 49.1795 25.3571 49.2415L26.0185 48.876C25.9276 48.7114 25.803 48.574 25.6485 48.4667L25.2174 49.0874ZM25.3608 49.2481C25.3886 49.2962 25.4083 49.3603 25.4083 49.4522H26.164C26.164 49.2461 26.1181 49.0478 26.0148 48.8694L25.3608 49.2481ZM28.6354 52.3005L28.4425 52.6254L28.4485 52.6289L28.6354 52.3005ZM28.1793 51.8399L27.8509 52.0269L27.8531 52.0306L28.1793 51.8399ZM28.1793 50.5432L27.8544 50.3503L27.8535 50.3519L28.1793 50.5432ZM28.6354 50.0916L28.4485 49.7632L28.4463 49.7645L28.6354 50.0916ZM29.941 50.0961L29.7481 50.421L29.7519 50.4232L29.941 50.0961ZM30.3927 50.5477L30.0655 50.7368L30.0677 50.7406L30.3927 50.5477ZM30.3927 51.8489L30.0677 51.6559L30.0655 51.6598L30.3927 51.8489ZM29.2882 52.0881C29.1067 52.0881 28.9544 52.0473 28.8223 51.9721L28.4485 52.6289C28.7039 52.7743 28.9868 52.8438 29.2882 52.8438V52.0881ZM28.8283 51.9756C28.6933 51.8954 28.5869 51.7883 28.5055 51.6492L27.8531 52.0306C27.9983 52.279 28.196 52.479 28.4425 52.6254L28.8283 51.9756ZM28.5077 51.653C28.4321 51.5202 28.3917 51.3692 28.3917 51.1916H27.636C27.636 51.4909 27.706 51.7722 27.8509 52.0269L28.5077 51.653ZM28.3917 51.1916C28.3917 51.006 28.433 50.8575 28.5051 50.7346L27.8535 50.3519C27.7051 50.6045 27.636 50.8883 27.636 51.1916H28.3917ZM28.5042 50.7361C28.5847 50.6006 28.6902 50.4964 28.8245 50.4188L28.4463 49.7645C28.1991 49.9074 28.0005 50.1043 27.8544 50.3503L28.5042 50.7361ZM28.8223 50.42C28.9544 50.3448 29.1067 50.304 29.2882 50.304V49.5483C28.9868 49.5483 28.7039 49.6179 28.4485 49.7632L28.8223 50.42ZM29.2882 50.304C29.4719 50.304 29.6216 50.3458 29.7481 50.421L30.134 49.7712C29.879 49.6198 29.5934 49.5483 29.2882 49.5483V50.304ZM29.7519 50.4232C29.8854 50.5004 29.9884 50.6033 30.0655 50.7368L30.7198 50.3586C30.5764 50.1105 30.3782 49.9124 30.1302 49.769L29.7519 50.4232ZM30.0677 50.7406C30.1429 50.8672 30.1847 51.0169 30.1847 51.2005H30.9404C30.9404 50.8953 30.869 50.6098 30.7176 50.3548L30.0677 50.7406ZM30.1847 51.2005C30.1847 51.3803 30.1433 51.5287 30.0677 51.656L30.7176 52.0418C30.8685 51.7875 30.9404 51.5037 30.9404 51.2005H30.1847ZM30.0655 51.6598C29.9884 51.7932 29.8854 51.8962 29.7519 51.9734L30.1302 52.6276C30.3782 52.4842 30.5764 52.2861 30.7198 52.038L30.0655 51.6598ZM29.7519 51.9734C29.6247 52.0469 29.4737 52.0881 29.2882 52.0881V52.8438C29.5916 52.8438 29.8758 52.7747 30.1302 52.6276L29.7519 51.9734ZM35.5402 48.1153L35.3804 48.4577L35.3843 48.4595L35.5402 48.1153ZM36.2601 48.6921L35.9474 48.9044L35.9505 48.9088L36.2601 48.6921ZM36.1617 50.4404L35.8879 50.18L35.8878 50.18L36.1617 50.4404ZM35.2451 50.968L35.1401 50.605C34.9684 50.6547 34.8549 50.8179 34.8683 50.9962C34.8816 51.1745 35.0181 51.319 35.1953 51.3426L35.2451 50.968ZM36.2958 51.4062L36.0497 51.6929L36.0515 51.6944L36.2958 51.4062ZM36.4166 53.4586L36.1037 53.2467L36.1022 53.249L36.4166 53.4586ZM35.5938 54.1472L35.756 54.4885L35.7583 54.4874L35.5938 54.1472ZM33.0675 54.1606L32.9133 54.5055L32.9156 54.5066L33.0675 54.1606ZM32.1285 53.472L31.8708 53.1956C31.7214 53.335 31.7098 53.5679 31.8447 53.7214L32.1285 53.472ZM32.9244 52.7297L33.2096 52.4818C33.1423 52.4044 33.0465 52.3577 32.9442 52.3524C32.8418 52.347 32.7417 52.3835 32.6667 52.4534L32.9244 52.7297ZM33.5191 53.1813L33.3674 53.5275L33.3731 53.5299L33.5191 53.1813ZM34.9678 53.0874L35.2039 53.3825L35.2066 53.3803L34.9678 53.0874ZM34.9813 51.7013L34.7446 51.996L34.7499 52.0001L34.9813 51.7013ZM33.6443 51.4822L33.2715 51.4207C33.2534 51.5301 33.2844 51.6421 33.3562 51.7267C33.428 51.8113 33.5333 51.8601 33.6443 51.8601V51.4822ZM33.8053 50.5075V50.1296C33.6204 50.1296 33.4626 50.2634 33.4325 50.4459L33.8053 50.5075ZM34.8784 50.3062L34.6493 50.0058L34.6468 50.0077L34.8784 50.3062ZM34.8918 49.1482L34.6551 49.4427L34.6551 49.4427L34.8918 49.1482ZM33.5683 49.09L33.4074 48.7481L33.4055 48.7491L33.5683 49.09ZM33.0049 49.4835L32.7329 49.7458C32.877 49.8952 33.1145 49.9004 33.265 49.7576L33.0049 49.4835ZM32.2806 48.7323L32.0177 48.4609C31.868 48.6058 31.8639 48.8446 32.0085 48.9946L32.2806 48.7323ZM33.233 48.1108L33.3728 48.4619L33.3753 48.4608L33.233 48.1108ZM34.4 48.274C34.8075 48.274 35.1299 48.3408 35.3804 48.4577L35.7 47.7729C35.3245 47.5976 34.8867 47.5183 34.4 47.5183V48.274ZM35.3843 48.4595C35.6489 48.5793 35.8294 48.7305 35.9475 48.9043L36.5727 48.4798C36.3628 48.1707 36.0634 47.9374 35.6961 47.7711L35.3843 48.4595ZM35.9505 48.9088C36.0733 49.0842 36.1326 49.2725 36.1326 49.4835H36.8883C36.8883 49.1163 36.7807 48.7769 36.5696 48.4754L35.9505 48.9088ZM36.1326 49.4835C36.1326 49.7973 36.0426 50.0174 35.8879 50.18L36.4355 50.7008C36.7458 50.3745 36.8883 49.9567 36.8883 49.4835H36.1326ZM35.8878 50.18C35.7127 50.3643 35.4697 50.5097 35.1401 50.605L35.35 51.331C35.7835 51.2057 36.1517 50.9994 36.4356 50.7007L35.8878 50.18ZM35.1953 51.3426C35.5629 51.3914 35.8408 51.5135 36.0497 51.6929L36.542 51.1195C36.2024 50.8279 35.7797 50.6579 35.2948 50.5934L35.1953 51.3426ZM36.0515 51.6944C36.2116 51.8301 36.3293 52.0708 36.3293 52.5062H37.0851C37.0851 51.9399 36.9286 51.4473 36.5402 51.118L36.0515 51.6944ZM36.3293 52.5062C36.3293 52.7801 36.2547 53.0237 36.1037 53.2467L36.7295 53.6704C36.966 53.3211 37.0851 52.9297 37.0851 52.5062H36.3293ZM36.1022 53.249C35.9543 53.4708 35.7359 53.6588 35.4294 53.807L35.7583 54.4874C36.1672 54.2897 36.4973 54.0187 36.731 53.6682L36.1022 53.249ZM35.4317 53.8058C35.136 53.9463 34.7663 54.0242 34.3106 54.0242V54.7799C34.8504 54.7799 35.3363 54.6878 35.756 54.4885L35.4317 53.8058ZM34.3106 54.0242C33.8928 54.0242 33.5314 53.9515 33.2194 53.8146L32.9156 54.5066C33.337 54.6915 33.8042 54.7799 34.3106 54.7799V54.0242ZM33.2218 53.8156C32.9035 53.6733 32.6351 53.476 32.4124 53.2225L31.8447 53.7214C32.1407 54.0582 32.4982 54.3199 32.9133 54.5055L33.2218 53.8156ZM32.3862 53.7483L33.1821 53.0061L32.6667 52.4534L31.8708 53.1956L32.3862 53.7483ZM32.6393 52.9777C32.8494 53.2193 33.0916 53.4065 33.3674 53.5274L33.6708 52.8353C33.5114 52.7654 33.3571 52.6515 33.2096 52.4818L32.6393 52.9777ZM33.3731 53.5299C33.641 53.6421 33.9232 53.6978 34.2167 53.6978V52.9421C34.0212 52.9421 33.8384 52.9054 33.6651 52.8328L33.3731 53.5299ZM34.2167 53.6978C34.5886 53.6978 34.9285 53.6029 35.2039 53.3825L34.7318 52.7924C34.6197 52.882 34.4588 52.9421 34.2167 52.9421V53.6978ZM35.2066 53.3803C35.5047 53.1373 35.6363 52.7937 35.6363 52.4078H34.8806C34.8806 52.6122 34.8185 52.7216 34.7291 52.7946L35.2066 53.3803ZM35.6363 52.4078C35.6363 52.0128 35.5232 51.643 35.2126 51.4025L34.7499 52.0001C34.809 52.0458 34.8806 52.147 34.8806 52.4078H35.6363ZM35.2179 51.4067C34.9453 51.1878 34.5914 51.1044 34.2077 51.1044V51.8601C34.4917 51.8601 34.6535 51.9227 34.7446 51.9959L35.2179 51.4067ZM34.2077 51.1044H33.6443V51.8601H34.2077V51.1044ZM34.0171 51.5438L34.1781 50.569L33.4325 50.4459L33.2715 51.4207L34.0171 51.5438ZM33.8053 50.8853H34.2077V50.1296H33.8053V50.8853ZM34.2077 50.8853C34.5442 50.8853 34.8556 50.8022 35.11 50.6048L34.6468 50.0077C34.5554 50.0786 34.4197 50.1296 34.2077 50.1296V50.8853ZM35.1076 50.6067C35.3985 50.3848 35.5201 50.0576 35.5201 49.6981H34.7644C34.7644 49.8812 34.7101 49.9594 34.6493 50.0058L35.1076 50.6067ZM35.5201 49.6981C35.5201 49.3624 35.3931 49.0662 35.1285 48.8536L34.6551 49.4427C34.7244 49.4984 34.7644 49.5689 34.7644 49.6981H35.5201ZM35.1285 48.8536C34.8797 48.6537 34.5738 48.5691 34.2435 48.5691V49.3248C34.4438 49.3248 34.5701 49.3744 34.6551 49.4427L35.1285 48.8536ZM34.2435 48.5691C33.9463 48.5691 33.6655 48.6267 33.4074 48.7481L33.7292 49.4319C33.8765 49.3626 34.0458 49.3248 34.2435 49.3248V48.5691ZM33.4055 48.7491C33.1668 48.8631 32.9466 49.0178 32.7448 49.2095L33.265 49.7576C33.4149 49.6153 33.5704 49.5078 33.7312 49.431L33.4055 48.7491ZM33.2769 49.2212L32.5526 48.47L32.0085 48.9946L32.7329 49.7458L33.2769 49.2212ZM32.5434 49.0038C32.7927 48.7624 33.0687 48.583 33.3728 48.4618L33.0931 47.7598C32.6937 47.9189 32.3348 48.1538 32.0177 48.4609L32.5434 49.0038ZM33.3753 48.4608C33.6766 48.3382 34.0166 48.274 34.4 48.274V47.5183C33.9309 47.5183 33.4928 47.5972 33.0906 47.7608L33.3753 48.4608ZM39.3597 52.3005L39.1668 52.6254L39.1728 52.6289L39.3597 52.3005ZM38.9036 51.8399L38.5752 52.0269L38.5774 52.0306L38.9036 51.8399ZM38.9036 50.5432L38.5787 50.3503L38.5778 50.3519L38.9036 50.5432ZM39.3597 50.0916L39.1728 49.7632L39.1706 49.7645L39.3597 50.0916ZM40.6654 50.0961L40.4724 50.421L40.4762 50.4232L40.6654 50.0961ZM41.117 50.5477L40.7898 50.7368L40.7921 50.7406L41.117 50.5477ZM41.117 51.8489L40.792 51.6559L40.7898 51.6598L41.117 51.8489ZM40.0125 52.0881C39.831 52.0881 39.6788 52.0473 39.5466 51.9721L39.1728 52.6289C39.4282 52.7743 39.7111 52.8438 40.0125 52.8438V52.0881ZM39.5526 51.9756C39.4176 51.8954 39.3112 51.7883 39.2298 51.6492L38.5774 52.0306C38.7226 52.279 38.9203 52.479 39.1668 52.6254L39.5526 51.9756ZM39.232 51.653C39.1564 51.5202 39.1161 51.3692 39.1161 51.1916H38.3603C38.3603 51.4909 38.4303 51.7722 38.5752 52.0269L39.232 51.653ZM39.1161 51.1916C39.1161 51.006 39.1573 50.8575 39.2295 50.7346L38.5778 50.3519C38.4294 50.6045 38.3603 50.8883 38.3603 51.1916H39.1161ZM39.2285 50.7361C39.309 50.6006 39.4145 50.4964 39.5488 50.4188L39.1706 49.7645C38.9234 49.9074 38.7248 50.1043 38.5787 50.3503L39.2285 50.7361ZM39.5466 50.42C39.6788 50.3448 39.831 50.304 40.0125 50.304V49.5483C39.7111 49.5483 39.4282 49.6179 39.1728 49.7632L39.5466 50.42ZM40.0125 50.304C40.1962 50.304 40.3459 50.3458 40.4724 50.421L40.8583 49.7712C40.6033 49.6198 40.3178 49.5483 40.0125 49.5483V50.304ZM40.4762 50.4232C40.6097 50.5004 40.7127 50.6033 40.7898 50.7368L41.4441 50.3586C41.3007 50.1105 41.1025 49.9124 40.8545 49.769L40.4762 50.4232ZM40.7921 50.7406C40.8672 50.8672 40.909 51.0169 40.909 51.2005H41.6647C41.6647 50.8953 41.5933 50.6098 41.4419 50.3548L40.7921 50.7406ZM40.909 51.2005C40.909 51.3803 40.8676 51.5287 40.7921 51.656L41.4419 52.0418C41.5928 51.7875 41.6647 51.5037 41.6647 51.2005H40.909ZM40.7898 51.6598C40.7127 51.7932 40.6097 51.8962 40.4762 51.9734L40.8545 52.6276C41.1025 52.4842 41.3007 52.2861 41.4441 52.038L40.7898 51.6598ZM40.4762 51.9734C40.349 52.0469 40.198 52.0881 40.0125 52.0881V52.8438C40.3159 52.8438 40.6001 52.7747 40.8545 52.6276L40.4762 51.9734ZM45.5535 49.7697L45.1899 49.8724L45.1901 49.8731L45.5535 49.7697ZM45.0036 48.5669L44.6837 48.768L44.6855 48.7708L45.0036 48.5669ZM44.0288 47.3238L43.7757 47.0433C43.7007 47.111 43.6559 47.2058 43.6513 47.3068C43.6468 47.4077 43.6828 47.5062 43.7514 47.5804L44.0288 47.3238ZM44.8515 46.5816L45.098 46.2952C44.9538 46.1711 44.7397 46.1736 44.5984 46.301L44.8515 46.5816ZM46.8771 49.3404L46.5206 49.4659L46.8771 49.3404ZM46.8771 52.8996L47.2335 53.0251L46.8771 52.8996ZM44.8515 55.6585L44.5984 55.939C44.7397 56.0665 44.9538 56.069 45.098 55.9449L44.8515 55.6585ZM44.0288 54.9162L43.7511 54.6599C43.6827 54.7341 43.6467 54.8326 43.6513 54.9335C43.6559 55.0343 43.7007 55.1292 43.7757 55.1968L44.0288 54.9162ZM45.0438 53.6374L45.3623 53.8408L45.363 53.8397L45.0438 53.6374ZM45.5714 52.457L45.9368 52.5531L45.937 52.5525L45.5714 52.457ZM46.1058 51.12C46.1058 50.5986 46.0442 50.1131 45.917 49.6662L45.1901 49.8731C45.2954 50.243 45.3501 50.6578 45.3501 51.12H46.1058ZM45.9172 49.6669C45.79 49.2169 45.5904 48.7821 45.3216 48.3629L44.6855 48.7708C44.9175 49.1327 45.0846 49.4998 45.1899 49.8724L45.9172 49.6669ZM45.3234 48.3657C45.0608 47.948 44.7204 47.5152 44.3062 47.0673L43.7514 47.5804C44.142 48.0029 44.4515 48.3988 44.6837 48.768L45.3234 48.3657ZM44.2819 47.6044L45.1046 46.8622L44.5984 46.301L43.7757 47.0433L44.2819 47.6044ZM44.605 46.868C45.0582 47.2581 45.4484 47.6673 45.777 48.0951L46.3763 47.6347C46.0134 47.1622 45.5868 46.7159 45.098 46.2952L44.605 46.868ZM45.777 48.0951C46.0986 48.5136 46.3462 48.9701 46.5206 49.4659L47.2335 49.215C47.0324 48.6436 46.7464 48.1164 46.3763 47.6347L45.777 48.0951ZM46.5206 49.4659C46.6922 49.9535 46.7809 50.5035 46.7809 51.12H47.5366C47.5366 50.431 47.4375 49.7946 47.2335 49.215L46.5206 49.4659ZM46.7809 51.12C46.7809 51.7366 46.6922 52.2866 46.5206 52.7742L47.2335 53.0251C47.4375 52.4455 47.5366 51.8091 47.5366 51.12H46.7809ZM46.5206 52.7742C46.3462 53.27 46.0986 53.7265 45.777 54.145L46.3763 54.6054C46.7464 54.1237 47.0324 53.5965 47.2335 53.0251L46.5206 52.7742ZM45.777 54.145C45.4484 54.5728 45.0582 54.982 44.605 55.3721L45.098 55.9449C45.5868 55.5242 46.0134 55.0778 46.3763 54.6054L45.777 54.145ZM45.1046 55.3779L44.2819 54.6357L43.7757 55.1968L44.5984 55.939L45.1046 55.3779ZM44.3065 55.1725C44.7456 54.6967 45.0993 54.2526 45.3623 53.8408L44.7253 53.4341C44.4934 53.7973 44.1705 54.2057 43.7511 54.6599L44.3065 55.1725ZM45.363 53.8397C45.6286 53.4205 45.8215 52.9916 45.9368 52.5531L45.206 52.3608C45.1127 52.7153 44.9539 53.0733 44.7246 53.4352L45.363 53.8397ZM45.937 52.5525C46.0509 52.1166 46.1058 51.6382 46.1058 51.12H45.3501C45.3501 51.5856 45.3006 51.9985 45.2058 52.3615L45.937 52.5525ZM48.5012 55.9134H48.1233C48.1233 56.122 48.2925 56.2912 48.5012 56.2912V55.9134ZM48.5012 54.8045V54.4266C48.2925 54.4266 48.1233 54.5958 48.1233 54.8045H48.5012ZM52.9725 54.8045H53.3504C53.3504 54.5958 53.1812 54.4266 52.9725 54.4266V54.8045ZM52.9725 55.9134V56.2912C53.1812 56.2912 53.3504 56.122 53.3504 55.9134H52.9725ZM48.879 55.9134V54.8045H48.1233V55.9134H48.879ZM48.5012 55.1823H52.9725V54.4266H48.5012V55.1823ZM52.5947 54.8045V55.9134H53.3504V54.8045H52.5947ZM52.9725 55.5355H48.5012V56.2912H52.9725V55.5355Z" fill="#58D5FD"/>
<path d="M2.125 6.05826C2.125 3.88598 3.88598 2.125 6.05826 2.125H57.6917C59.864 2.125 61.625 3.88598 61.625 6.05826V9.5H2.125V6.05826Z" fill="#202020"/>
<circle cx="57.5" cy="5.875" r="1.25" fill="#FD5858"/>
<circle cx="53.5" cy="5.875" r="1.25" fill="#79E35E"/>
</svg>
